<svg width="35" height="35" viewBox="0 0 35 35" fill="none" xmlns="http://www.w3.org/2000/svg">
<path d="M12.1401 11.6289C12.1401 15.7634 7.38672 16.5482 7.38672 16.5482C7.38672 16.5482 12.1401 17.333 12.1401 21.4675C12.1401 17.333 16.8934 16.5482 16.8934 16.5482C16.8934 16.5482 12.1401 15.7634 12.1401 11.6289Z" fill="url(#paint0_linear_1270_279)"/>
<path d="M12.1401 11.6289C12.1401 15.7634 7.38672 16.5482 7.38672 16.5482C7.38672 16.5482 12.1401 17.333 12.1401 21.4675C12.1401 17.333 16.8934 16.5482 16.8934 16.5482C16.8934 16.5482 12.1401 15.7634 12.1401 11.6289Z" fill="url(#paint1_linear_1270_279)"/>
<path d="M3.92083 11.9922C3.92083 14.3083 1.25781 14.7485 1.25781 14.7485C1.25781 14.7485 3.92083 15.1888 3.92083 17.5049C3.92083 15.1888 6.58385 14.7485 6.58385 14.7485C6.58385 14.7485 3.92083 14.3083 3.92083 11.9922Z" fill="url(#paint2_linear_1270_279)"/>
<path d="M6.58341 19.4297C6.58341 23.124 2.33594 23.8226 2.33594 23.8226C2.33594 23.8226 6.58341 24.5213 6.58341 28.2155C6.58341 24.5213 10.8309 23.8226 10.8309 23.8226C10.8309 23.8226 6.58341 23.124 6.58341 19.4297Z" fill="url(#paint3_linear_1270_279)"/>
<path d="M0.00807834 0V6.8813C0.00807834 6.8813 -0.249633 8.72844 2.14613 8.72844H18.0097C18.0097 8.72844 26.1515 9.85778 26.1515 17.5047C26.1515 25.1517 19.3937 26.2332 16.8834 26.2332H13.7241C13.7241 26.2332 10.8511 26.1853 9.70568 27.1232C8.56029 28.0612 8.67483 29.2862 8.67483 29.669V33.4303C8.67483 33.4303 8.53166 34.9999 10.6793 34.9999H18.6206C18.6206 34.9999 27.526 35.1339 32.3843 26.3576C37.2427 17.5813 33.5392 9.13998 30.1699 5.52227C26.8196 1.90456 22.8299 0 16.5684 0H0.00807834Z" fill="url(#paint4_linear_1270_279)"/>
<defs>
<linearGradient id="paint0_linear_1270_279" x1="12.1401" y1="21.4771" x2="12.1401" y2="11.6289" gradientUnits="userSpaceOnUse">
<stop stop-color="#86D1B3"/>
<stop offset="1" stop-color="#003051"/>
</linearGradient>
<linearGradient id="paint1_linear_1270_279" x1="12.1401" y1="21.4771" x2="12.1401" y2="11.6289" gradientUnits="userSpaceOnUse">
<stop stop-color="#86D1B3"/>
<stop offset="1" stop-color="#003051"/>
</linearGradient>
<linearGradient id="paint2_linear_1270_279" x1="3.92083" y1="17.5049" x2="3.92083" y2="11.9922" gradientUnits="userSpaceOnUse">
<stop stop-color="#86D1B3"/>
<stop offset="1" stop-color="#003051"/>
</linearGradient>
<linearGradient id="paint3_linear_1270_279" x1="6.58341" y1="28.2155" x2="6.58341" y2="19.4297" gradientUnits="userSpaceOnUse">
<stop stop-color="#86D1B3"/>
<stop offset="1" stop-color="#003051"/>
</linearGradient>
<linearGradient id="paint4_linear_1270_279" x1="17.3702" y1="34.9999" x2="17.3702" y2="0" gradientUnits="userSpaceOnUse">
<stop stop-color="#86D1B3"/>
<stop offset="1" stop-color="#003051"/>
</linearGradient>
</defs>
</svg>
